<svg xmlns="http://www.w3.org/2000/svg" width="239.24" height="33.709" viewBox="0 0 239.24 33.709">
  <g id="Group_960" data-name="Group 960" transform="translate(-263.83 -501.088)">
    <path id="Path_2738" data-name="Path 2738" d="M280.468,529l-1.483-5.175h-7.034L270.373,529H263.83l8.106-26.259h8.522L288.694,529Zm-7.148-10.907h4.248l-2.125-7.617Z" transform="translate(0 -0.936)"/>
    <path id="Path_2739" data-name="Path 2739" d="M542.122,528.906V502.643h13.334q4.156,0,6.061,2.1a6.924,6.924,0,0,1,1.9,4.791,6.065,6.065,0,0,1-1.107,3.55,5.657,5.657,0,0,1-3.3,2.184q5.1,1.231,5.1,6.118a8.251,8.251,0,0,1-1.8,5.224q-1.8,2.3-7.687,2.3Zm7.427-16.2h3.733a2.42,2.42,0,0,0,1.982-.712,2.373,2.373,0,0,0,.577-1.52q0-2.193-2.694-2.193h-3.6Zm0,10.352h3.925a2.833,2.833,0,0,0,2.145-.722,2.309,2.309,0,0,0,.683-1.626,2.477,2.477,0,0,0-.664-1.664,3.136,3.136,0,0,0-2.434-.76h-3.656Z" transform="translate(-157.753 -0.881)"/>
    <path id="Path_2740" data-name="Path 2740" d="M327.6,519.277l-.038,1.16-.075,3.554v.6a6.8,6.8,0,0,0,.187,1.74,2.336,2.336,0,0,0,.561,1.066,1.709,1.709,0,0,0,.729.43,3.864,3.864,0,0,0,1.1.132,9.544,9.544,0,0,0,1.141-.075q.617-.075,1.665-.3l.075.075.038,1.982v.412l-.038,1.272-.037.075a10.485,10.485,0,0,1-2.544,1.16,9.924,9.924,0,0,1-5.649-.075,5.449,5.449,0,0,1-2.17-1.272,5.373,5.373,0,0,1-1.291-2.189,10.3,10.3,0,0,1-.43-3.161v-.9l.037-1.122V521.97l.112-3.442-.037-.038-2.245-.112-1.309-.038-.075-.074v-2.956l.075-1.048.074-.074a12.832,12.832,0,0,0,2.525-.45,3.3,3.3,0,0,0,1.291-.785,4.1,4.1,0,0,0,.879-1.459,15.2,15.2,0,0,0,.655-2.619l.075-.075.449-.037,1.871-.075h1.5l.972.037.075.075-.037,1.31-.075,1.982-.075,1.534.038.037,2.731-.037h1.309l1.234.037.075.075v2.394l-.037,1.535-.038.635-.075.075-.972.037-3.629-.037-.524.037-.037.038Z" transform="translate(-30.315 -4.309)"/>
    <path id="Path_2741" data-name="Path 2741" d="M357.336,524.325v-1.459l-.037-6.622v-3.779l.037-2.581.074-.075h5.8l.6.037.075.075.112,5.537V528.4l-.075.075-3.7.037h-1.833l-1.01-.037-.075-.075Zm3.592-22.3.075-.037q.71-.036,1.29-.037h1.628q.822,0,1.777.018t2.189.056l.038.075-.225.225q-1.571,1.347-3.46,2.675t-4.321,2.787h-.074l-.262-.15-.411-.3v-.075q.486-1.384,1.085-3.217T360.928,502.027Z" transform="translate(-52.984 -0.49)"/>
    <path id="Path_2742" data-name="Path 2742" d="M377.3,545.471l-.075-.075-.037-1.5v-2.806l-.038-7-.075-3.33v-10.55l.075-.075,2.582-.113,2.282-.037h1.234l.075.075.112.785.337,1.833.224,1.272.075.262h.074a9.114,9.114,0,0,1,2.731-3.367,5.989,5.989,0,0,1,3.367-.935,6.656,6.656,0,0,1,2.694.524,7.843,7.843,0,0,1,2.357,1.684,9.194,9.194,0,0,1,2.114,3.349,12.317,12.317,0,0,1,.729,4.32,12.036,12.036,0,0,1-.767,4.3,9.4,9.4,0,0,1-2.114,3.367,6.619,6.619,0,0,1-2.319,1.516,8.165,8.165,0,0,1-2.955.5,7.243,7.243,0,0,1-3.255-.823,8.291,8.291,0,0,1-2.769-2.207h-.037l-.038,2.245.075,4.863.038,1.2v.524l-.075.075h-.786l-1.272.038-2.432.037Zm12.458-10.663a4.662,4.662,0,0,0,1.122-2.038,11.2,11.2,0,0,0,.374-3.087,8.6,8.6,0,0,0-.3-2.45,3.814,3.814,0,0,0-.935-1.628,3.534,3.534,0,0,0-1.085-.748,2.977,2.977,0,0,0-1.2-.262,2.862,2.862,0,0,0-1.179.243,3.487,3.487,0,0,0-1.029.73,5.4,5.4,0,0,0-1.234,2.057,7.928,7.928,0,0,0-.449,2.656,6.048,6.048,0,0,0,.449,2.3,5.644,5.644,0,0,0,1.234,1.889,3.784,3.784,0,0,0,1.16.8,3.213,3.213,0,0,0,1.31.281,2.409,2.409,0,0,0,.935-.187A2.553,2.553,0,0,0,389.76,534.808Z" transform="translate(-64.195 -10.674)"/>
    <path id="Path_2743" data-name="Path 2743" d="M428.372,507.011l-.075-.075v-3.367l.038-2.282.075-.075,2.132-.037h4.415l.075.075.075,4.227v1.01l-.037.449-.075.075-4.677.038h-.785Zm0,16.873v-1.459l-.037-6.622v-3.779l.037-2.581.074-.075h5.8l.6.037.075.075.112,5.537v12.945l-.075.075-3.7.037h-1.833l-1.01-.037-.075-.075Z" transform="translate(-93.23 -0.049)"/>
    <path id="Path_2744" data-name="Path 2744" d="M457.513,524l-.9-1.347h-.075l-1.721,1.983-.037.075V528l-.075.075-.786.037-5.425-.037-.075-.075v-5.874L448.5,512.1l-.075-7.333.075-3.479.074-.075,2.619-.037h3.741l.075.075-.038,2.319v5.687l-.112,5.911-.038,2.694h.075l1.086-1.609.972-1.347,3.142-4.752.561-.748.075-.037.823-.037,4.041.037.9.037.636.075.037.075-3.18,4.228-3.4,4.452v.075l1.122,1.534,2.469,3.367,2.282,3.329.935,1.422-.037.075-.486.037h-5.387l-1.309-.037-.075-.038Z" transform="translate(-104.638 -0.049)"/>
    <path id="Path_2745" data-name="Path 2745" d="M506.509,521.665a9.572,9.572,0,0,1,2.806,6.809,10.762,10.762,0,0,1-.73,3.984,9.393,9.393,0,0,1-2.113,3.236,9.917,9.917,0,0,1-3.4,2.207,11.275,11.275,0,0,1-4.191.786,11.389,11.389,0,0,1-4.284-.8,10.342,10.342,0,0,1-3.5-2.3,9.588,9.588,0,0,1-2.039-2.993,8.582,8.582,0,0,1-.729-3.442,11.172,11.172,0,0,1,.748-4.116,9.619,9.619,0,0,1,2.17-3.33,9.814,9.814,0,0,1,3.442-2.226,11.828,11.828,0,0,1,4.3-.767,11.178,11.178,0,0,1,4.171.767A9.817,9.817,0,0,1,506.509,521.665Zm-9.727,11.56a3.246,3.246,0,0,0,2.319.972,2.561,2.561,0,0,0,1.01-.206,2.809,2.809,0,0,0,.9-.617,4.358,4.358,0,0,0,1.029-1.758,7.918,7.918,0,0,0,.356-2.469,11.3,11.3,0,0,0-.337-2.974,4.2,4.2,0,0,0-1.01-1.889,2.827,2.827,0,0,0-.991-.636,3.545,3.545,0,0,0-1.291-.225,2.854,2.854,0,0,0-1.066.188,2.623,2.623,0,0,0-.879.6,4.572,4.572,0,0,0-1.085,2,11.016,11.016,0,0,0-.374,3.049,6.576,6.576,0,0,0,.374,2.264A4.57,4.57,0,0,0,496.782,533.225Z" transform="translate(-127.259 -9.989)"/>
    <path id="Path_2746" data-name="Path 2746" d="M596.463,538.27l-.038-1.684-.037-7.071v-5.238l-.038-2.02.075-2.581.074-.075.487-.037,1.384-.038,2.507-.037,1.684.075.075.074.075.674.112,1.31.224,2.207.075.561h.037a20.593,20.593,0,0,1,1.179-2.618,7.669,7.669,0,0,1,1.253-1.721,2.638,2.638,0,0,1,.972-.617,3.793,3.793,0,0,1,1.31-.206,5.655,5.655,0,0,1,.879.075,3.315,3.315,0,0,1,.8.225l.037.075.075,2.02v3.218l-.075,1.908-.074.075q-.561-.036-1.01-.056c-.3-.012-.6-.019-.9-.019a8.645,8.645,0,0,0-2.544.356,4.117,4.117,0,0,0-1.721.917,1.5,1.5,0,0,0-.206.8q-.056.655-.056,2.263v6.323l-.037.748-.075.075-1.871.038-3.442.075h-1.123Z" transform="translate(-188.493 -10.282)"/>
    <path id="Path_2747" data-name="Path 2747" d="M645.567,526.165l-.075,2.02-.075,3.18v.711a10.869,10.869,0,0,0,.318,2.75,17.1,17.1,0,0,0,1.216,3.049l-.037.075q-1.572.113-4.059.131t-2.75.019l-.074-.037a9.193,9.193,0,0,1-.823-1.59,4.95,4.95,0,0,1-.337-1.59H638.8a7.261,7.261,0,0,1-2.507,2.712,6.463,6.463,0,0,1-3.442.916,7.62,7.62,0,0,1-4.9-1.44,4.705,4.705,0,0,1-1.8-3.872,5.573,5.573,0,0,1,.336-2,4.523,4.523,0,0,1,1.048-1.59,6.059,6.059,0,0,1,2-1.31,26.978,26.978,0,0,1,4.92-1.085q1.5-.224,2.469-.411t1.871-.412l.037-.038a1.13,1.13,0,0,0,.037-.262v-.449a3.68,3.68,0,0,0-.169-1.2,2.372,2.372,0,0,0-.58-.9,3,3,0,0,0-1.01-.674,3.419,3.419,0,0,0-1.272-.224,2.708,2.708,0,0,0-2.114.767,3.467,3.467,0,0,0-.692,2.376l-.075.075q-1.273-.037-2.675-.113t-3.311-.262l-.075-.075a1.276,1.276,0,0,1-.038-.318v-.5a5.429,5.429,0,0,1,.374-2,4.81,4.81,0,0,1,1.085-1.665,6.726,6.726,0,0,1,3.049-1.59,18.759,18.759,0,0,1,4.845-.543,14.345,14.345,0,0,1,4.452.693,7.979,7.979,0,0,1,3.217,1.777,5.585,5.585,0,0,1,1.309,1.908,6.961,6.961,0,0,1,.374,2.469Zm-12.757,6.51a1.876,1.876,0,0,0,.58,1.44,2.076,2.076,0,0,0,1.477.543,3.466,3.466,0,0,0,1.422-.337,4.375,4.375,0,0,0,1.309-.9,3.413,3.413,0,0,0,.823-1.328,5.772,5.772,0,0,0,.262-1.852v-.972l-.037-.038a36.264,36.264,0,0,0-3.554,1.085,5.221,5.221,0,0,0-1.759.973,1.677,1.677,0,0,0-.393.617A2.189,2.189,0,0,0,632.81,532.674Z" transform="translate(-205.385 -10.037)"/>
    <path id="Path_2748" data-name="Path 2748" d="M682.03,528.865v2.993l.038,4.677v.673l-.038,1.122-.075.075-1.983.037H677.84l-1.646-.037-.748-.037-.075-.075-.037-.411-.038-4.789.075-6.1v-1.347l-.075-4.564.038-1.234.075-.075,2.394-.075h2.432l1.347.037.075.075.262,1.534.075.6.149.935h.075a7.785,7.785,0,0,1,2.544-2.731,6.644,6.644,0,0,1,3.33-.748,7.3,7.3,0,0,1,2.488.411,5.173,5.173,0,0,1,1.927,1.2,5.734,5.734,0,0,1,1.534,3.2,58.737,58.737,0,0,1,.336,7.913v3.666l-.037,2.544-.075.075h-2.432l-2.619.037-1.534-.037-.075-.075-.038-4.3V530.81a33.575,33.575,0,0,0-.187-4.227,3.27,3.27,0,0,0-.748-1.871,1.681,1.681,0,0,0-.636-.393,2.753,2.753,0,0,0-1.927.093,3.039,3.039,0,0,0-.917.636,3.389,3.389,0,0,0-.879,1.478A8.792,8.792,0,0,0,682.03,528.865Z" transform="translate(-233.244 -10.38)"/>
    <path id="Path_2749" data-name="Path 2749" d="M742.964,502.585l.037,5.05-.037,4.789v3.217l-.075,9.428.075,2.207v.6l-.075.075-.86.038-2.993.037-2.021-.037-.075-.075q-.188-.9-.318-1.964t-.206-2.264h-.075a14.223,14.223,0,0,1-3.31,3.479,6.082,6.082,0,0,1-3.424.972,6.011,6.011,0,0,1-2.582-.561,8.838,8.838,0,0,1-2.432-1.8,9.581,9.581,0,0,1-2.17-3.349,11.523,11.523,0,0,1-.748-4.209,11.109,11.109,0,0,1,.655-3.966,8.654,8.654,0,0,1,2-3.068,9.062,9.062,0,0,1,2.693-1.908,7.25,7.25,0,0,1,2.993-.636,6.52,6.52,0,0,1,3.423,1.01,8.125,8.125,0,0,1,2.712,2.694h.075l-.038-1.945v-2.582l-.037-4.152.037-2.507.075-.075h3.853l2.133.075.636.038.075.075Zm-8.118,11.335a3.349,3.349,0,0,0-1.066-.729,3.6,3.6,0,0,0-2.694.037,3.611,3.611,0,0,0-1.141.767,4.834,4.834,0,0,0-1.1,1.777,6.715,6.715,0,0,0-.393,2.338,7.392,7.392,0,0,0,.411,2.526,5.138,5.138,0,0,0,1.2,1.927,3.4,3.4,0,0,0,1.122.767,3.642,3.642,0,0,0,1.384.244,2.753,2.753,0,0,0,1.141-.262,3.445,3.445,0,0,0,1.029-.711,4.576,4.576,0,0,0,1.085-1.871,8.787,8.787,0,0,0,.374-2.693,7.681,7.681,0,0,0-.355-2.395A4.281,4.281,0,0,0,734.846,513.92Z" transform="translate(-259.536)"/>
    <path id="Path_2750" data-name="Path 2750" d="M789.945,535.97a8.084,8.084,0,0,1-3.292,2.021,16.037,16.037,0,0,1-4.789.6,14.85,14.85,0,0,1-4.489-.618,7.51,7.51,0,0,1-3.105-1.777,4.7,4.7,0,0,1-1.1-1.7,6.342,6.342,0,0,1-.355-2.225q0-.225.019-.505a5,5,0,0,1,.056-.5l.074-.075.973-.038h.636l1.384.038,1.609.037.075.075a6.787,6.787,0,0,0,.224,1.347,1.772,1.772,0,0,0,.412.748,3.338,3.338,0,0,0,1.459.767,7.686,7.686,0,0,0,2.132.281,7.485,7.485,0,0,0,2.844-.43q1.01-.43,1.01-1.179a.871.871,0,0,0-.075-.356.925.925,0,0,0-.187-.28,1.9,1.9,0,0,0-.767-.356q-.581-.168-2.825-.655a27.354,27.354,0,0,1-4.433-1.235,7.435,7.435,0,0,1-2.525-1.5,4.436,4.436,0,0,1-1.048-1.534,5.5,5.5,0,0,1-.3-1.945,5.016,5.016,0,0,1,.449-2.058,6.068,6.068,0,0,1,1.272-1.833,7.92,7.92,0,0,1,3.161-1.945,14.566,14.566,0,0,1,4.508-.6,13.933,13.933,0,0,1,4.041.505,6.371,6.371,0,0,1,2.693,1.552,4.427,4.427,0,0,1,1.048,1.646,6.529,6.529,0,0,1,.337,2.208l-.075.074-.187.038-1.384.075-2.1.037h-1.048l-.075-.075a2.845,2.845,0,0,0-1.066-1.777,4.47,4.47,0,0,0-2.338-.468,5.266,5.266,0,0,0-2.264.393,1.192,1.192,0,0,0-.8,1.066,1.258,1.258,0,0,0,.056.393.814.814,0,0,0,.206.318,1.7,1.7,0,0,0,.711.375q.486.149,2.918.674a26.666,26.666,0,0,1,4.227,1.178,6.945,6.945,0,0,1,2.32,1.478,4.636,4.636,0,0,1,1.047,1.665,5.7,5.7,0,0,1-.075,4.247A5.565,5.565,0,0,1,789.945,535.97Z" transform="translate(-288.521 -9.891)"/>
  </g>
</svg>
